PathFileType   4   (X/Y/Z)
DataRate	CameraRate	NumFrames	NumMarkers	Units	OrigDataRate	OrigDataStartFrame	OrigNumFrames
120.0	120.0	10	37	mm	120.0	16	126
Frame#	Time	midhip	hip_r	hip_l	knee_r	knee_l	ankle_r	ankle_l	midasis	asis_r	asis_l	psis_r	psis_l	epicondLat_r	epicondLat_l	epicondMed_r	epicondMed_l	malleolusLat_r	malleolusLat_l	malleolusMedv_r	malleolusMedv_l	neck	subclavicle_r	subclavicle_l	sternalnotch	xyphoidprocess	thighwand_r	thighwand_l	upperleg1_r	upperleg1_l	upperleg2_r	upperleg2_l	shankwand_r	shankwand_l	lowerleg1_r	lowerleg1_l	toe_r	toe_l
 	 	X1	Y1	Z1	X2	Y2	Z2	X3	Y3	Z3	X4	Y4	Z4	X5	Y5	Z5	X6	Y6	Z6	X7	Y7	Z7	X8	Y8	Z8	X9	Y9	Z9	X10	Y10	Z10	X11	Y11	Z11	X12	Y12	Z12	X13	Y13	Z13	X14	Y14	Z14	X15	Y15	Z15	X16	Y16	Z16	X17	Y17	Z17	X18	Y18	Z18	X19	Y19	Z19	X20	Y20	Z20	X21	Y21	Z21	X22	Y22	Z22	X23	Y23	Z23	X24	Y24	Z24	X25	Y25	Z25	X26	Y26	Z26	X27	Y27	Z27	X28	Y28	Z28	X29	Y29	Z29	X30	Y30	Z30	X31	Y31	Z31	X32	Y32	Z32	X33	Y33	Z33	X34	Y34	Z34	X35	Y35	Z35	X36	Y36	Z36	X37	Y37	Z37

	16	0.27500	1430.424	900.940	-248.736	1424.764	887.710	-199.395	1431.012	892.770	-305.662	1512.148	476.602	-171.824	1481.917	483.258	-299.719	1224.568	184.105	-158.362	1436.712	68.664	-280.476	1508.547	985.023	-243.273	1502.487	980.115	-140.199	1514.607	989.932	-346.347	1308.872	1013.388	-210.613	1311.932	1018.888	-295.771	1515.201	481.224	-112.583	1494.917	484.032	-357.776	1519.275	481.150	-227.903	1458.233	484.182	-254.761	1221.421	188.929	-120.801	1439.108	66.575	-319.847	1226.234	192.406	-189.906	1442.430	77.048	-250.527	1366.462	1468.986	-254.232	1471.527	1401.921	-173.933	1462.124	1397.932	-330.481	1454.256	1400.833	-255.446	1496.809	1200.366	-259.653	1519.272	588.602	-32.095	1610.725	625.310	-293.135	1538.544	649.808	-102.964	1539.620	675.122	-347.517	1553.037	568.273	-120.814	1536.604	587.765	-340.361	1285.177	239.213	-55.344	1549.476	172.397	-266.900	1311.899	290.690	-117.916	1488.861	224.834	-289.753	1293.365	87.596	-170.270	1564.407	42.129	-277.934
	17	0.28333	1439.461	902.031	-248.582	1433.527	888.728	-199.914	1439.465	893.245	-306.222	1528.864	479.227	-172.203	1485.178	482.981	-300.360	1248.553	180.430	-159.509	1436.811	68.664	-280.548	1517.038	985.937	-244.535	1511.284	981.560	-141.508	1522.793	990.315	-347.562	1317.482	1014.111	-210.733	1320.322	1019.197	-295.949	1532.003	483.966	-112.975	1497.946	483.573	-358.471	1536.626	483.860	-228.065	1460.686	484.742	-254.485	1244.920	185.431	-122.015	1439.116	66.512	-319.922	1249.889	188.670	-191.025	1442.637	77.086	-250.617	1375.358	1469.700	-254.089	1480.533	1402.214	-174.117	1470.658	1398.570	-330.669	1463.018	1401.334	-255.592	1505.093	1200.778	-260.338	1534.443	591.070	-32.183	1615.772	623.259	-294.355	1552.595	652.684	-102.886	1544.941	674.084	-348.107	1568.642	571.462	-120.831	1540.241	586.662	-340.890	1306.698	237.545	-56.290	1550.225	171.580	-267.339	1332.955	289.199	-119.005	1489.940	224.385	-290.191	1320.814	86.778	-169.832	1564.469	42.008	-278.124
	18	0.29167	1446.845	901.269	-248.639	1442.345	889.599	-200.364	1447.941	893.597	-306.712	1545.267	481.872	-172.622	1488.408	482.695	-301.016	1273.009	176.247	-160.690	1436.920	68.675	-280.612	1525.559	986.718	-245.731	1520.142	982.847	-142.761	1530.977	990.588	-348.702	1326.105	1014.690	-210.797	1328.677	1019.394	-296.070	1548.487	486.714	-113.407	1500.922	483.121	-359.183	1569.021	488.502	-231.395	1464.275	484.494	-255.063	1268.849	181.413	-123.273	1439.112	66.462	-319.989	1273.990	184.525	-192.167	1442.824	77.120	-250.711	1384.228	1470.217	-253.844	1489.504	1402.359	-174.352	1479.182	1399.116	-330.842	1471.759	1401.709	-255.758	1513.475	1201.093	-261.113	1549.380	593.501	-32.285	1620.744	621.197	-295.611	1566.449	655.515	-102.835	1550.194	673.033	-348.783	1589.656	576.195	-121.478	1544.492	585.665	-341.741	1328.471	235.498	-57.264	1550.950	170.742	-267.831	1354.127	287.451	-120.069	1491.058	223.915	-290.625	1348.623	85.701	-169.685	1564.544	41.896	-278.319
	19	0.30000	1454.310	900.469	-248.675	1451.232	890.325	-200.713	1456.449	893.830	-307.097	1561.322	484.503	-173.074	1491.610	482.402	-301.661	1297.823	171.664	-161.927	1437.030	68.705	-280.667	1534.115	987.374	-246.828	1529.068	983.983	-143.914	1539.162	990.765	-349.743	1334.736	1015.111	-210.792	1337.025	1019.470	-296.126	1564.630	489.433	-113.870	1503.842	482.678	-359.890	1577.370	490.238	-229.623	1468.794	483.585	-256.518	1293.143	176.937	-124.587	1439.091	66.435	-320.048	1298.417	180.032	-193.439	1442.983	77.171	-250.807	1393.101	1470.579	-253.576	1498.491	1402.478	-174.637	1487.738	1399.633	-330.979	1480.522	1402.044	-255.932	1522.070	1201.411	-261.901	1564.084	595.885	-32.399	1625.672	619.159	-296.893	1580.056	658.309	-102.856	1555.423	672.030	-349.571	1601.493	578.966	-121.001	1549.306	584.846	-342.939	1350.529	233.038	-58.310	1551.650	169.894	-268.358	1375.322	285.292	-121.082	1492.174	223.494	-291.111	1376.726	84.415	-169.811	1564.633	41.804	-278.519
	20	0.30833	1464.165	901.969	-248.533	1460.187	890.908	-200.944	1464.998	893.946	-307.362	1577.003	487.075	-173.557	1494.829	482.113	-302.267	1322.941	166.762	-163.235	1437.136	68.754	-280.717	1542.705	987.911	-247.804	1538.054	984.974	-144.935	1547.356	990.848	-350.673	1343.379	1015.365	-210.722	1345.380	1019.427	-296.124	1580.425	492.079	-114.366	1506.750	482.255	-360.560	1590.282	492.703	-229.191	1473.256	482.791	-257.939	1317.778	172.058	-125.962	1439.057	66.433	-320.102	1323.096	175.221	-194.869	1442.841	77.358	-250.984	1401.986	1470.900	-253.280	1507.462	1402.569	-174.817	1496.302	1400.128	-331.078	1489.282	1402.354	-256.036	1530.666	1201.707	-262.621	1578.572	598.206	-32.539	1630.581	617.167	-298.176	1593.417	661.020	-102.883	1560.646	671.102	-350.338	1614.977	581.877	-120.986	1554.083	584.120	-344.117	1372.896	230.142	-59.449	1552.340	169.049	-268.893	1396.561	282.690	-122.300	1493.330	223.207	-291.571	1405.075	82.967	-170.175	1564.727	41.730	-278.730
	21	0.31667	1474.627	903.996	-248.385	1469.191	891.347	-201.057	1473.584	893.946	-307.504	1592.331	489.541	-174.079	1498.099	481.815	-302.815	1348.372	161.592	-164.619	1437.240	68.817	-280.759	1551.323	988.323	-248.645	1547.078	985.812	-145.798	1555.568	990.834	-351.492	1352.039	1015.460	-210.608	1353.753	1019.272	-296.075	1595.895	494.606	-114.903	1509.694	481.841	-361.174	1604.830	495.669	-229.674	1476.821	482.718	-258.568	1342.777	166.828	-127.400	1439.022	66.451	-320.148	1348.543	170.034	-196.361	1442.619	77.573	-251.157	1410.819	1471.148	-252.928	1516.408	1402.497	-174.893	1504.812	1400.563	-331.138	1498.003	1402.558	-256.066	1539.170	1201.891	-263.400	1592.857	600.443	-32.711	1635.476	615.221	-299.412	1606.619	663.516	-102.774	1565.923	670.236	-350.984	1628.993	584.769	-121.253	1558.342	583.285	-344.959	1395.596	226.809	-60.674	1553.036	168.211	-269.402	1417.932	279.805	-123.575	1494.512	222.983	-291.928	1433.649	81.401	-170.738	1564.805	41.668	-278.954
	22	0.32500	1484.042	904.778	-248.353	1478.214	891.646	-201.052	1482.189	893.831	-307.525	1607.358	491.867	-174.642	1501.409	481.475	-303.304	1374.130	156.199	-166.068	1437.352	68.886	-280.786	1559.958	988.603	-249.344	1556.119	986.492	-146.490	1563.798	990.713	-352.197	1360.731	1015.411	-210.477	1362.157	1019.015	-295.985	1611.077	496.976	-115.479	1512.687	481.403	-361.726	1618.636	498.784	-230.414	1478.101	484.380	-257.379	1368.158	161.299	-128.888	1439.005	66.479	-320.178	1374.825	164.469	-197.832	1442.905	77.601	-251.159	1419.664	1471.282	-252.558	1525.396	1402.277	-175.007	1513.284	1400.894	-331.192	1506.724	1402.638	-256.104	1547.641	1201.952	-264.266	1606.922	602.576	-32.913	1640.356	613.302	-300.545	1619.752	665.898	-102.614	1571.198	669.338	-351.571	1642.660	587.541	-121.634	1561.217	582.128	-345.132	1418.641	223.075	-61.965	1553.754	167.363	-269.853	1439.539	276.631	-124.825	1495.736	222.700	-292.212	1462.463	79.759	-171.437	1564.866	41.604	-279.179
	23	0.33333	1491.986	903.809	-248.453	1487.238	891.812	-200.933	1490.800	893.601	-307.429	1622.132	494.033	-175.250	1504.754	481.067	-303.722	1400.247	150.616	-167.560	1437.481	68.949	-280.796	1568.607	988.743	-249.905	1565.165	987.014	-147.017	1572.048	990.472	-352.794	1369.465	1015.237	-210.339	1370.598	1018.666	-295.866	1626.001	499.164	-116.098	1515.742	480.913	-362.198	1632.794	501.222	-230.826	1484.248	482.330	-259.733	1393.940	155.523	-130.410	1439.022	66.506	-320.191	1401.189	158.744	-199.355	1443.528	77.595	-251.163	1428.563	1471.282	-252.171	1534.443	1401.950	-175.131	1521.821	1401.069	-331.257	1515.507	1402.585	-256.154	1556.188	1201.884	-265.078	1620.744	604.591	-33.144	1645.230	611.385	-301.521	1632.291	668.243	-102.873	1576.436	668.349	-352.125	1656.190	590.193	-122.101	1567.056	581.574	-346.444	1442.030	219.007	-63.299	1554.526	166.503	-270.224	1461.326	273.153	-126.159	1497.130	222.332	-292.528	1491.569	78.089	-172.191	1564.915	41.526	-279.389
	24	0.34167	1498.936	901.665	-248.618	1496.243	891.850	-200.716	1499.405	893.255	-307.230	1636.661	496.032	-175.914	1508.159	480.583	-304.058	1426.739	144.889	-169.068	1437.638	68.999	-280.796	1577.262	988.739	-250.345	1574.206	987.381	-147.398	1580.319	990.097	-353.292	1378.228	1014.951	-210.197	1379.076	1018.238	-295.731	1640.672	501.161	-116.771	1518.897	480.361	-362.581	1647.343	502.813	-230.878	1489.130	481.341	-260.758	1420.133	149.562	-131.939	1439.085	66.525	-320.191	1427.721	152.950	-200.874	1444.081	77.651	-251.240	1437.478	1471.173	-251.747	1543.640	1401.466	-175.249	1530.420	1401.096	-331.291	1524.395	1402.377	-256.178	1564.851	1201.667	-265.898	1634.318	606.469	-33.425	1650.127	609.453	-302.312	1644.006	670.315	-103.565	1581.722	667.323	-352.600	1669.492	592.686	-122.656	1572.150	580.757	-347.204	1465.753	214.680	-64.647	1555.445	165.652	-270.499	1483.308	269.463	-127.469	1498.673	221.953	-292.867	1520.995	76.443	-172.955	1564.968	41.435	-279.566
	25	0.35000	1506.785	900.393	-248.751	1505.227	891.767	-200.413	1508.001	892.797	-306.942	1650.919	497.860	-176.634	1511.648	480.036	-304.327	1453.605	139.083	-170.545	1437.823	69.040	-280.783	1585.925	988.596	-250.682	1583.242	987.601	-147.659	1588.607	989.591	-353.706	1387.005	1014.564	-210.050	1387.578	1017.743	-295.584	1655.074	502.966	-117.500	1522.183	479.758	-362.886	1660.651	505.025	-231.563	1498.894	476.297	-259.427	1446.731	143.493	-133.433	1439.193	66.537	-320.180	1454.224	147.145	-202.410	1444.461	77.669	-251.260	1446.387	1470.985	-251.283	1552.925	1400.793	-175.398	1539.028	1401.009	-331.353	1533.330	1402.022	-256.225	1573.506	1201.303	-266.855	1647.645	608.187	-33.771	1655.074	607.497	-302.906	1656.214	672.227	-103.904	1582.306	665.208	-352.654	1682.450	594.943	-123.300	1576.296	579.627	-347.338	1489.791	210.182	-65.973	1556.558	164.817	-270.685	1505.527	265.595	-128.696	1500.148	221.537	-293.090	1550.712	74.867	-173.698	1565.063	41.351	-279.705
